<svg id="Layer_1" data-name="Layer 1" xmlns="http://www.w3.org/2000/svg" viewBox="0 0 841.89 595.28"><defs><style>.cls-1{fill:#ffcc05;}.cls-2{fill:#332761;}</style></defs><path class="cls-1" d="M264.67,295.89l5.87,1c.64.11.6.57.47,1-.68,2.2-1.4,4.4-2.1,6.6q-1.79,5.59-3.56,11.18c-1.17,3.7-2.31,7.41-3.48,11.11-1.33,4.19-2.68,8.37-4,12.56-.22.69-.38.87-1.1.49a46.51,46.51,0,0,0-11.69-4.14A58.73,58.73,0,0,0,232,334.35a53.26,53.26,0,0,0-22.41,4.81c-.65.31-1.28.64-2.06,1-.37-1.09-.74-2.12-1.07-3.16-1.28-4.06-2.53-8.13-3.81-12.18q-2-6.37-4-12.74L194.12,298c-.3-.94-.23-1,.71-1.14,1.61-.25,3.23-.49,4.81-.85.7-.15.92.08,1.13.64a40.81,40.81,0,0,0,4.46,8.88c1.5,2.16,3.16,4.17,5.72,5.17a6.39,6.39,0,0,0,6.32-.95c2.75-1.95,4.48-4.72,6-7.63a74.27,74.27,0,0,0,5.84-16.24c.23-.92.47-1.83.68-2.75a.88.88,0,0,1,1-.8c1.18,0,2.35,0,3.53,0,.59,0,.81.22,1,.82,1.68,6.89,3.61,13.7,7.06,20a20.14,20.14,0,0,0,5,6.29,6.83,6.83,0,0,0,9.37-.26,25.26,25.26,0,0,0,5.85-8.39C263.3,299.15,264,297.51,264.67,295.89Z"/><path class="cls-2" d="M415.9,301.57v-2c0-1.12,0-1.12,1.15-1.12,2.55,0,5.11,0,7.66,0,.76,0,1.05.19,1.05,1,0,11.42.08,22.85-.05,34.27-.06,5.16-1.34,10-5,14a15.15,15.15,0,0,1-7.77,4.51,28.33,28.33,0,0,1-20.32-2.61c-1.91-1-1.74-.8-.76-2.57,1.17-2.09,2.33-4.19,3.51-6.33,1.16.51,2.23,1,3.34,1.45a17.94,17.94,0,0,0,8.9,1.26,8.88,8.88,0,0,0,6.91-6,19.8,19.8,0,0,0,.65-6.36,3.87,3.87,0,0,0-.14-.65,5.29,5.29,0,0,0-.75.6,11.67,11.67,0,0,1-9.25,4.14,15.32,15.32,0,0,1-8.71-2.17,14.45,14.45,0,0,1-6.05-8.29,23.06,23.06,0,0,1-1-8.12c.32-5.36,1.71-10.31,5.63-14.27a15.1,15.1,0,0,1,11.92-4.49,12.06,12.06,0,0,1,8.2,3.41,4.29,4.29,0,0,0,.6.42Zm-.59,12.67h-.13c0-1.52,0-3,0-4.55a1.82,1.82,0,0,0-1-1.8,10.28,10.28,0,0,0-5.73-1.5,7.51,7.51,0,0,0-7,4.33,13.66,13.66,0,0,0-.17,12,7.23,7.23,0,0,0,7.49,4.37,7.1,7.1,0,0,0,6.1-6.3C415.14,318.58,415.18,316.4,415.31,314.24Z"/><path class="cls-2" d="M324.16,335.06c-.45,0-.72.07-1,.07-3.82,0-7.64,0-11.45,0a1.67,1.67,0,0,1-1.51-.77q-4.83-6.67-9.72-13.32c-.33-.45-.69-.86-1-1.29l-.24.09a8.93,8.93,0,0,0-.1,1c0,4.38,0,8.76,0,13.14,0,.89-.27,1.12-1.13,1.11-2.92,0-5.85,0-8.78,0-.75,0-1-.17-1-1q0-22.84,0-45.71c0-.76.18-1,1-1,3,0,6,0,8.95,0,.83,0,1,.29,1,1,0,7.71,0,15.41,0,23.12,0,.36,0,.72.08,1.37a8.21,8.21,0,0,0,.91-.84c3.52-4.34,7-8.7,10.55-13a1.7,1.7,0,0,1,1.13-.57c3.76-.05,7.52,0,11.28,0a7.75,7.75,0,0,1,.79.12c-.81,1-1.52,1.87-2.26,2.74Q315.82,308.15,310,315c-.46.54-.36.91,0,1.41q6.56,8.61,13.08,17.26C323.46,334.06,323.76,334.5,324.16,335.06Z"/><path class="cls-2" d="M358.25,305.16c.24-.44.45-.89.71-1.32,2.72-4.53,6.82-6.29,12-6,4.23.21,7.64,1.87,9.94,5.5a12.92,12.92,0,0,1,2,5.69c.18,1.85.29,3.71.3,5.56,0,6.48,0,12.95,0,19.42,0,1.15,0,1.15-1.11,1.15-2.9,0-5.8,0-8.7,0-.82,0-1.07-.24-1.07-1.07q0-10.31,0-20.62c0-2.1-.59-4-2.55-5.12a7,7,0,0,0-10.13,3.53,11.56,11.56,0,0,0-.7,3.92c-.07,6.07,0,12.14,0,18.21,0,1.13,0,1.13-1.13,1.13-2.9,0-5.8,0-8.69,0-.75,0-1.07-.18-1.07-1q0-17.36,0-34.7c0-.75.22-1,1-1,2.67,0,5.33,0,8,0,.7,0,.89.25.87.91,0,1.6,0,3.2,0,4.81a7.87,7.87,0,0,0,.12,1Z"/><path class="cls-2" d="M434.45,311.28V288.6c0-1.16,0-1.17,1.2-1.17,1.4,0,2.81,0,4.21,0,.77,0,1,.23,1,1,0,6,0,11.92,0,17.87,0,1.55,0,1.58,1.61,1.58h20.31c1.42,0,1.43,0,1.43-1.45,0-5.95,0-11.91,0-17.87,0-.85.2-1.15,1.1-1.11,1.54.08,3.1,0,4.64,0,.55,0,.82.17.77.74,0,.17,0,.34,0,.51q0,22.59,0,45.19c0,1.26,0,1.26-1.28,1.26s-2.81,0-4.21,0c-.82,0-1-.27-1-1,0-6.3,0-12.6,0-18.9,0-1.38,0-1.38-1.38-1.38H442.14c-1.25,0-1.31.05-1.31,1.31v18.73c0,1.26,0,1.26-1.29,1.26h-3.88c-1.21,0-1.21,0-1.21-1.25Z"/><path class="cls-2" d="M512,317.1a19.33,19.33,0,0,1-5,13.56,15.29,15.29,0,0,1-8.82,4.8,17.16,17.16,0,0,1-11.65-1.77,16.9,16.9,0,0,1-7.76-9.49,21.27,21.27,0,0,1-.93-10.57c1-6.57,4.82-12.61,12.21-14.61,8.84-2.4,17.34,1.6,20.66,10.53A20,20,0,0,1,512,317.1Zm-6.54.72c0-4.05-.77-6.94-2.49-9.44a9.46,9.46,0,0,0-9.75-4.24,9.6,9.6,0,0,0-7.54,5.85,16.31,16.31,0,0,0-.75,12.18c1.31,4.18,3.87,7.07,8.42,7.79a9.25,9.25,0,0,0,9.08-3.45A14.35,14.35,0,0,0,505.43,317.82Z"/><path class="cls-2" d="M529,335.85a23.85,23.85,0,0,1-11.09-2.77c-.22-.13-.44-.27-.67-.39a.77.77,0,0,1-.37-1.24c.63-1.16,1.21-2.34,1.76-3.54.27-.58.57-.66,1.13-.35a18.27,18.27,0,0,0,10.66,2.33,5.93,5.93,0,0,0,4-1.71,3.87,3.87,0,0,0-.09-5.55c-1.32-1.27-3.05-1.75-4.69-2.42-2.64-1.08-5.34-2.07-7.88-3.36-6.21-3.18-5.62-12.05-.87-15.61,3.25-2.43,6.92-3,10.82-2.82a22,22,0,0,1,8.15,2.24c.56.26.81.54.51,1.18-.57,1.22-1.1,2.45-1.6,3.7-.22.56-.48.68-1,.4a17.35,17.35,0,0,0-7.11-1.8,8.76,8.76,0,0,0-5.35,1.26,3.43,3.43,0,0,0-.08,5.93,35,35,0,0,0,5.3,2.36,38.32,38.32,0,0,1,7.82,3.7,9.08,9.08,0,0,1,3.58,8.9,10.36,10.36,0,0,1-2,5.13,11.09,11.09,0,0,1-6.84,3.95C531.72,335.64,530.34,335.7,529,335.85Z"/><path class="cls-2" d="M570.45,328.77c0,1.77,0,3.45,0,5.13,0,.24-.36.58-.63.69a15.73,15.73,0,0,1-12.75-.24,9.42,9.42,0,0,1-4.94-6.09,18.51,18.51,0,0,1-.72-5.59c0-5.58,0-11.16,0-16.75,0-1.19,0-1.21-1.19-1.22-1.55,0-3.1,0-4.65,0-.65,0-.93-.17-.92-.86,0-1.35,0-2.69,0-4,0-.66.21-.92.89-.9,1.6,0,3.21,0,4.82,0,.77,0,1.07-.24,1-1,0-2.52,0-5,0-7.56,0-.84.29-1.09,1.1-1.06,1.37.05,2.75,0,4.13,0,1.1,0,1.14,0,1.14,1.18v7.13c0,1.29,0,1.31,1.29,1.32,3.47,0,6.94,0,10.41,0,.77,0,1.08.2,1,1-.06,1.29-.05,2.58,0,3.87,0,.69-.2.94-.93.94-3.55,0-7.11,0-10.67,0-1.06,0-1.13.07-1.13,1.12,0,5.86,0,11.73,0,17.6,0,3,1.3,5.07,3.74,6a9.09,9.09,0,0,0,5.24.28C567.92,329.41,569.1,329.1,570.45,328.77Z"/><path class="cls-2" d="M329.33,316.8V299.63c0-1.16,0-1.16,1.13-1.16,2.9,0,5.8,0,8.69,0,.76,0,1,.26,1,1q0,17.35,0,34.69c0,.74-.22,1-1,1-3,0-5.91,0-8.87,0-.76,0-1-.27-1-1C329.34,328.37,329.33,322.58,329.33,316.8Z"/><path class="cls-2" d="M334.68,293.56c-2.6,0-4.72-.95-5.72-3.51-1.59-4.1.93-8.38,5.48-8.37a6.42,6.42,0,0,1,5.11,1.94c2.61,2.89,1.67,8.37-2.6,9.65a4.89,4.89,0,0,1-.9.27A12.49,12.49,0,0,1,334.68,293.56Z"/></svg>